<?xml version="1.0" encoding="UTF-8" standalone="no"?>
<svg
   aria-hidden="true"
   role="img"
   class="iconify iconify--logos"
   width="31.88"
   height="32"
   preserveAspectRatio="xMidYMid meet"
   viewBox="0 0 256 257"
   version="1.1"
   id="svg6"
   sodipodi:docname="vite.svg"
   inkscape:version="1.3 (0e150ed6c4, 2023-07-21)"
   xmlns:inkscape="http://www.inkscape.org/namespaces/inkscape"
   xmlns:sodipodi="http://sodipodi.sourceforge.net/DTD/sodipodi-0.dtd"
   xmlns="http://www.w3.org/2000/svg"
   xmlns:svg="http://www.w3.org/2000/svg">
  <sodipodi:namedview
     id="namedview6"
     pagecolor="#ffffff"
     globalBorderColor="#000000"
     borderopacity="0.25"
     inkscape:showpageshadow="2"
     inkscape:pageopacity="0.0"
     inkscape:pagecheckerboard="0"
     inkscape:deskcolor="#d1d1d1"
     inkscape:zoom="18.703125"
     inkscape:cx="10.639933"
     inkscape:cy="18.419382"
     inkscape:window-width="2560"
     inkscape:window-height="1411"
     inkscape:window-x="3447"
     inkscape:window-y="265"
     inkscape:window-maximized="1"
     inkscape:current-layer="svg6" />
  <defs
     id="defs5">
    <linearGradient
       id="IconifyId1813088fe1fbc01fb466"
       x1="-.828%"
       x2="57.636%"
       y1="7.652%"
       y2="78.411%">
      <stop
         offset="0%"
         stop-color="#41D1FF"
         id="stop1" />
      <stop
         offset="100%"
         stop-color="#BD34FE"
         id="stop2" />
    </linearGradient>
    <linearGradient
       id="IconifyId1813088fe1fbc01fb467"
       x1="43.376%"
       x2="50.316%"
       y1="2.242%"
       y2="89.03%">
      <stop
         offset="0%"
         stop-color="#FFEA83"
         id="stop3" />
      <stop
         offset="8.333%"
         stop-color="#FFDD35"
         id="stop4" />
      <stop
         offset="100%"
         stop-color="#FFA800"
         id="stop5" />
    </linearGradient>
  </defs>
  <g
     id="g2"
     transform="matrix(0.76911683,0,0,0.76911683,1.1460794,4.893612)"
     style="clip-rule:evenodd;fill-rule:evenodd;image-rendering:optimizeQuality;shape-rendering:geometricPrecision;text-rendering:geometricPrecision">
    <path
       style="opacity:0.96"
       fill="#45413c"
       d="m 147.5,-0.5 h 36 c 72.024,12.1784 119.191,53.1784 141.5,123 2.769,10.35 4.935,20.684 6.5,31 v 38 c -5.042,15.887 -15.042,27.72 -30,35.5 -6.077,2.582 -12.41,4.082 -19,4.5 -15.90327,50.71592 -53.16523,70.14084 -55.70928,72.58144 -20.78931,15.19695 -45.09818,16.91922 -69.82556,17.24413 C 110.37416,315.56457 75.7425,292.072 54,250.5 51.4471,244.678 49.6138,238.678 48.5,232.5 36.2304,232.356 25.5638,228.189 16.5,220 7.45859,211.521 1.79192,201.354 -0.5,189.5 v -36 C 8.39932,88.1883 42.3993,41.0216 101.5,12 116.452,5.93131 131.786,1.76465 147.5,-0.5 Z m 165,132 c -9.078,-6.141 -19.078,-10.141 -30,-12 C 266.175,71.6804 233.175,42.8471 183.5,33 126.814,27.7779 84.3137,49.6112 56,98.5 c -3.3693,7.064 -5.8693,14.398 -7.5,22 -11.0682,0.91 -21.0682,4.577 -30,11 C 32.1826,78.9816 64.1826,42.4816 114.5,22 178.498,2.20678 233.332,16.7068 279,65.5 c 16.19,19.3788 27.357,41.379 33.5,66 z"
       id="path1"
       sodipodi:nodetypes="ccccccccccccccccccccccccc" />
  </g>
  <g
     id="g3"
     transform="matrix(0.76911683,0,0,0.76911683,1.1460794,4.893612)"
     style="clip-rule:evenodd;fill-rule:evenodd;image-rendering:optimizeQuality;shape-rendering:geometricPrecision;text-rendering:geometricPrecision">
    <path
       style="opacity:1"
       fill="#75c540"
       d="M 270.5,139.5 C 239.694,85.6081 193.694,65.1081 132.5,78 c -33.1341,9.9787 -57.1341,30.479 -72,61.5 -0.3333,0 -0.6667,0 -1,0 -0.1657,-4.346 10e-4,-8.679 0.5,-13 12.056,-40.0561 38.2227,-66.2228 78.5,-78.5 48.916,-8.8115 88.083,6.6885 117.5,46.5 6.305,9.944 10.972,20.611 14,32 0.499,4.321 0.666,8.654 0.5,13 z"
       id="path2" />
  </g>
  <g
     id="g4"
     transform="matrix(0.76911683,0,0,0.76911683,1.1460794,4.893612)"
     style="clip-rule:evenodd;fill-rule:evenodd;image-rendering:optimizeQuality;shape-rendering:geometricPrecision;text-rendering:geometricPrecision">
    <path
       style="opacity:1"
       fill="#5d9f30"
       d="m 270.5,142.5 c 1.112,26.317 1.278,52.65 0.5,79 -2.716,12.152 -7.383,23.485 -14,34 -1.724,-18.02 -8.224,-34.02 -19.5,-48 15.399,-15.714 20.566,-34.381 15.5,-56 -8.056,-30.553 -27.889,-46.553 -59.5,-48 -12.445,0.536 -23.612,4.536 -33.5,12 C 136.079,99.4002 112.246,99.5668 88.5,116 61.9927,140.909 58.4927,168.742 78,199.5 c 2.5,3 5,6 7.5,9 -8.5252,10.716 -14.6919,22.716 -18.5,36 -2.6034,-5.059 -4.6034,-10.393 -6,-16 -0.4129,-29.67 -0.9129,-59.337 -1.5,-89 0.3333,0 0.6667,0 1,0 21.9449,-40.8955 56.778,-62.5622 104.5,-65 48.485,2.3684 83.651,25.0351 105.5,68 z"
       id="path3" />
  </g>
  <g
     id="g5"
     transform="matrix(0.76911683,0,0,0.76911683,1.1460794,4.893612)"
     style="clip-rule:evenodd;fill-rule:evenodd;image-rendering:optimizeQuality;shape-rendering:geometricPrecision;text-rendering:geometricPrecision">
    <path
       style="opacity:1"
       fill="#6db23a"
       d="m 270.5,139.5 c 0,1 0,2 0,3 -21.849,-42.9649 -57.015,-65.6316 -105.5,-68 -47.722,2.4378 -82.5551,24.1045 -104.5,65 14.8659,-31.021 38.8659,-51.5213 72,-61.5 61.194,-12.8919 107.194,7.6081 138,61.5 z"
       id="path4" />
  </g>
  <g
     id="g6"
     transform="matrix(0.76911683,0,0,0.76911683,1.1460794,4.893612)"
     style="clip-rule:evenodd;fill-rule:evenodd;image-rendering:optimizeQuality;shape-rendering:geometricPrecision;text-rendering:geometricPrecision">
    <path
       style="opacity:1"
       fill="#fddacf"
       d="m 119.5,116.5 c 8.32,-0.236 16.32,1.264 24,4.5 5.643,3.067 11.143,6.233 16.5,9.5 6.54,-4.171 13.373,-8.005 20.5,-11.5 29.411,-5.877 49.244,5.289 59.5,33.5 5.079,20.768 -0.921,37.435 -18,50 -2,3 -2,6 0,9 18.66,17.648 24.993,38.981 19,64 -31.224,28.649 -67.391,37.482 -108.5,26.5 -20.101,-7.097 -37.2675,-18.597 -51.5,-34.5 -2.6157,-14.591 0.051,-28.258 8,-41 3.5134,-5.691 7.5134,-11.024 12,-16 0.667,-2.333 0.667,-4.667 0,-7 -23.1994,-18.464 -27.8661,-40.797 -14,-67 8.4758,-10.647 19.309,-17.314 32.5,-20 z"
       id="path5" />
  </g>
  <g
     id="g7"
     transform="matrix(0.76911683,0,0,0.76911683,1.1460794,4.893612)"
     style="clip-rule:evenodd;fill-rule:evenodd;image-rendering:optimizeQuality;shape-rendering:geometricPrecision;text-rendering:geometricPrecision">
    <path
       style="opacity:1"
       fill="#5b5853"
       d="m 39.5,133.5 c 2.3333,0 4.6667,0 7,0 0,29 0,58 0,87 -18.3153,-4.149 -29.482,-15.483 -33.5,-34 -5.92305,-25.489 2.9103,-43.156 26.5,-53 z"
       id="path6" />
  </g>
  <g
     id="g8"
     transform="matrix(0.76911683,0,0,0.76911683,1.1460794,4.893612)"
     style="clip-rule:evenodd;fill-rule:evenodd;image-rendering:optimizeQuality;shape-rendering:geometricPrecision;text-rendering:geometricPrecision">
    <path
       style="opacity:1"
       fill="#5b5853"
       d="m 285.5,134.5 c 16.163,2.326 26.663,11.326 31.5,27 0.667,9 0.667,18 0,27 -4.644,16.148 -15.144,25.814 -31.5,29 0,-27.667 0,-55.333 0,-83 z"
       id="path7" />
  </g>
  <g
     id="g9"
     transform="matrix(0.76911683,0,0,0.76911683,1.1460794,4.893612)"
     style="clip-rule:evenodd;fill-rule:evenodd;image-rendering:optimizeQuality;shape-rendering:geometricPrecision;text-rendering:geometricPrecision">
    <path
       style="opacity:1"
       fill="#49443f"
       d="m 119.5,138.5 c 16.745,-1.719 27.911,5.281 33.5,21 1.903,16.363 -4.93,27.196 -20.5,32.5 -17.257,2.29 -28.424,-4.877 -33.5,-21.5 -1.5613,-11.382 2.272,-20.549 11.5,-27.5 3.092,-1.546 6.092,-3.046 9,-4.5 z"
       id="path8" />
  </g>
  <g
     id="g10"
     transform="matrix(0.76911683,0,0,0.76911683,1.1460794,4.893612)"
     style="clip-rule:evenodd;fill-rule:evenodd;image-rendering:optimizeQuality;shape-rendering:geometricPrecision;text-rendering:geometricPrecision">
    <path
       style="opacity:1"
       fill="#49443f"
       d="m 188.5,138.5 c 16.745,-1.719 27.911,5.281 33.5,21 1.903,16.363 -4.93,27.196 -20.5,32.5 -17.257,2.29 -28.424,-4.877 -33.5,-21.5 -1.561,-11.382 2.272,-20.549 11.5,-27.5 3.092,-1.546 6.092,-3.046 9,-4.5 z"
       id="path9" />
  </g>
  <g
     id="g11"
     transform="matrix(0.76911683,0,0,0.76911683,1.1460794,4.893612)"
     style="clip-rule:evenodd;fill-rule:evenodd;image-rendering:optimizeQuality;shape-rendering:geometricPrecision;text-rendering:geometricPrecision">
    <path
       style="opacity:1"
       fill="#fbfbfb"
       d="m 119.5,146.5 c 3.018,-0.165 6.018,0.002 9,0.5 -5.407,5.925 -5.074,11.591 1,17 6.243,2.641 11.243,1.141 15,-4.5 2.147,18.685 -6.186,26.852 -25,24.5 -13.819,-7.464 -16.652,-17.964 -8.5,-31.5 2.736,-2.252 5.569,-4.252 8.5,-6 z"
       id="path10" />
  </g>
  <g
     id="g12"
     transform="matrix(0.76911683,0,0,0.76911683,1.1460794,4.893612)"
     style="clip-rule:evenodd;fill-rule:evenodd;image-rendering:optimizeQuality;shape-rendering:geometricPrecision;text-rendering:geometricPrecision">
    <path
       style="opacity:1"
       fill="#fbfbfb"
       d="m 188.5,146.5 c 3.018,-0.165 6.018,0.002 9,0.5 -5.407,5.925 -5.074,11.591 1,17 6.243,2.641 11.243,1.141 15,-4.5 2.147,18.685 -6.186,26.852 -25,24.5 -13.819,-7.464 -16.652,-17.964 -8.5,-31.5 2.736,-2.252 5.569,-4.252 8.5,-6 z"
       id="path11" />
  </g>
  <g
     id="g13"
     transform="matrix(0.76911683,0,0,0.76911683,1.1460794,4.893612)"
     style="clip-rule:evenodd;fill-rule:evenodd;image-rendering:optimizeQuality;shape-rendering:geometricPrecision;text-rendering:geometricPrecision">
    <path
       style="opacity:0.00400002"
       fill="#44413b"
       d="m 309.5,224.5 c 1.333,0.667 1.333,0.667 0,0 z"
       id="path12" />
  </g>
  <g
     id="g14"
     transform="matrix(0.76911683,0,0,0.76911683,1.1460794,4.893612)"
     style="clip-rule:evenodd;fill-rule:evenodd;image-rendering:optimizeQuality;shape-rendering:geometricPrecision;text-rendering:geometricPrecision">
    <path
       style="opacity:1"
       fill="#46423d"
       d="m 121.5,239.5 c 2.82,-0.252 5.486,0.248 8,1.5 21.97,22.143 43.637,21.81 65,-1 5.334,-1.333 8.667,0.667 10,6 -3.565,7.235 -8.898,12.901 -16,17 -26.815,14.17 -49.982,9.67 -69.5,-13.5 -1.139,-3.921 -0.305,-7.254 2.5,-10 z"
       id="path13" />
  </g>
  <g
     id="g15"
     transform="matrix(0.76911683,0,0,0.76911683,1.1460794,4.893612)"
     style="clip-rule:evenodd;fill-rule:evenodd;image-rendering:optimizeQuality;shape-rendering:geometricPrecision;text-rendering:geometricPrecision">
    <path
       style="opacity:0.00400002"
       fill="#497a24"
       d="M 236.5,297.5 C -0.05506414,-0.70686703 -0.05506414,-0.70686703 236.5,297.5 Z"
       id="path14"
       sodipodi:nodetypes="cc" />
  </g>
</svg>
